# xmcd
#
# Track frame offsets:
#	150
#	20805
#	37209
#	55387
#	73286
#	91593
#	106701
#	121328
#	137478
#	154353
#	172317
#	188845
#	202993
#	218730
#	235640
#	256947
#	270666
#	286164
#	302117
#
# Disc length: 4269 seconds
#
# Revision: 1
# Processed by: cddbd v1.5.1PL0 Copyright (c) Steve Scherf et al.
# Submitted via: audiograbber 1.83.01
#
DISCID=1610ab13
DTITLE=Various Artist - RC49
DYEAR=1998
DGENRE=Country
TTITLE0=Faith Hill ft. Tim McGraw - Just To Hear You Say That You Love Me
TTITLE1=George Strait - True
TTITLE2=John Michael Montgomery - Cover You In Kisses
TTITLE3=Wilkinsons - 26 Cents
TTITLE4=Alan Jackson - I'll Go On Loving You
TTITLE5=Jo Dee Messina - I'm Alright
TTITLE6=Randy Travis - The Hole
TTITLE7=Lari White - Stepping Stone
TTITLE8=Dwight Yoakam - Things Change
TTITLE9=Reba McEntire - Forever Love
TTITLE10=Brooks And Dunn - How Long Gone
TTITLE11=Patty Loveless - High On Love
TTITLE12=Tracy Byrd - I Wanna Feel That Way Again
TTITLE13=David Kersh - Wonderful Tonight
TTITLE14=Vince Gill - If You Ever Have Forever In Mind
TTITLE15=Pam Tillis - I Said A Prayer
TTITLE16=Tim McGraw - Where The Green Grass Grows
TTITLE17=Diamond Rio - You're Gone
TTITLE18=Sammy Kershaw - Matches
EXTD=
EXTT0=
EXTT1=
EXTT2=
EXTT3=
EXTT4=
EXTT5=
EXTT6=
EXTT7=
EXTT8=
EXTT9=
EXTT10=
EXTT11=
EXTT12=
EXTT13=
EXTT14=
EXTT15=
EXTT16=
EXTT17=
EXTT18=
PLAYORDER=
